STARTFONT 2.1
COMMENT
COMMENT Converted from OpenType font "Font 90 Icons.ttf" by "otf2bdf 3.0".
COMMENT
FONT -FreeType-Font 90 Icons-Medium-R-Normal--25-180-100-100-P-94-ISO10646-1
SIZE 18 100 100
FONTBOUNDINGBOX 27 26 0 -5
STARTPROPERTIES 19
FOUNDRY "FreeType"
FAMILY_NAME "Font 90 Icons"
WEIGHT_NAME "Medium"
SLANT "R"
SETWIDTH_NAME "Normal"
ADD_STYLE_NAME ""
PIXEL_SIZE 25
POINT_SIZE 180
RESOLUTION_X 100
RESOLUTION_Y 100
SPACING "P"
AVERAGE_WIDTH 94
CHARSET_REGISTRY "ISO10646"
CHARSET_ENCODING "1"
FONT_ASCENT 20
FONT_DESCENT 5
COPYRIGHT "Typeface © (el-harrak.blogspot.com). <darrati10@gmail.com>. All Rights Reserved"
_OTF_FONTFILE "Font 90 Icons.ttf"
_OTF_PSNAME "Font 90 Icons"
ENDPROPERTIES
CHARS 242
STARTCHAR 0000
ENCODING 0
SWIDTH 0 0
DWIDTH 0 0
BBX 0 0 0 0
BITMAP
ENDCHAR
STARTCHAR 001D
ENCODING 29
SWIDTH 0 0
DWIDTH 0 0
BBX 0 0 0 0
BITMAP
ENDCHAR
STARTCHAR 0020
ENCODING 32
SWIDTH 240 0
DWIDTH 6 0
BBX 0 0 0 0
BITMAP
ENDCHAR
STARTCHAR 0021
ENCODING 33
SWIDTH 960 0
DWIDTH 24 0
BBX 24 24 0 -4
BITMAP
007F00
03FEC0
07FF30
0FFF88
1FFFC4
3FE3C4
7FE3C2
7FE7C2
7FFF81
FFFF81
FFFF01
FFFE01
FFC001
FF0001
FF0001
7E0001
7E1802
7E1C02
3E1C04
1E0004
0E0008
070030
0380C0
00FF00
ENDCHAR
STARTCHAR 0022
ENCODING 34
SWIDTH 960 0
DWIDTH 24 0
BBX 24 20 0 -2
BITMAP
007E00
00FF00
008100
008100
7FFFFF
FFFFFF
FFFFFF
FFFFFF
FFFFFF
FFFFFF
FFFFFF
FFFFFF
FFFFFF
FFFFFF
FFFFFF
FFFFFF
FFFFFF
FFFFFF
7FFFFF
3FFFFE
ENDCHAR
STARTCHAR 0023
ENCODING 35
SWIDTH 960 0
DWIDTH 24 0
BBX 23 26 1 -5
BITMAP
01C000
47FC00
FFFF08
EFFFF8
EFFFF8
6FFFF8
6FFFF8
7FFFFC
7FFFFC
77FFFC
77FFFC
37FFFC
3783FC
3E007C
38001E
380000
380000
180000
180000
1C0000
1C0000
1C0000
0C0000
0C0000
0E0000
0C0000
ENDCHAR
STARTCHAR 0024
ENCODING 36
SWIDTH 960 0
DWIDTH 24 0
BBX 24 24 0 -4
BITMAP
1C0000
3E0000
7F0000
FF8000
FFC000
FFE000
7FF800
3FDC00
1FBE00
0F7C00
06F800
03F000
01E800
01C400
008200
000100
000080
000040
000020
000010
000008
000004
000002
000001
ENDCHAR
STARTCHAR 0025
ENCODING 37
SWIDTH 960 0
DWIDTH 24 0
BBX 23 26 1 -5
BITMAP
003000
007800
007800
01FE00
07FF80
0FFFC0
FF3BFC
FE30FE
FC30FC
7E31F8
7F33F8
73FF3C
707C1C
707C3C
71FF3C
7FB3F8
7E31F8
FC30FC
FC30FE
FF39FC
0FFFE0
07FF80
01FF00
007800
007800
003000
ENDCHAR
STARTCHAR 0026
ENCODING 38
SWIDTH 960 0
DWIDTH 24 0
BBX 24 24 0 -4
BITMAP
007F00
03F7C0
070070
0C3C38
18FF8C
33FFC4
27FFE6
66FFF2
4F7FF3
CFBEFB
DFDDF9
DFEBF9
DFE7F9
DFF7F9
CFFFFB
4FFFF3
67FFF2
67FFE6
33FFC4
19FF8C
0C3E18
060070
03E7C0
007F00
ENDCHAR
STARTCHAR 0027
ENCODING 39
SWIDTH 960 0
DWIDTH 24 0
BBX 24 24 0 -4
BITMAP
03F800
0FFE00
1FFF00
3FFF80
3C07C0
7863C0
78E1E0
F0E1E0
F7FDE0
F7FDE0
F0E1E0
F0E1E0
78E3C0
7C43C0
3E0FC0
1FFFE0
0FFFF0
07FFF8
00E3FC
0001FE
0000FF
00007F
00003F
00001E
ENDCHAR
STARTCHAR 0028
ENCODING 40
SWIDTH 960 0
DWIDTH 24 0
BBX 24 24 0 -4
BITMAP
03F800
0FFE00
1FFF00
3FBF80
7C07C0
7803C0
7001E0
F001E0
F7FDE0
F7FDE0
F001E0
F001E0
7803C0
7C07C0
3E0FE0
1FFFF0
0FFFF8
07FFFC
0063FE
0001FF
0000FF
00007F
00003F
00001E
ENDCHAR
STARTCHAR 0029
ENCODING 41
SWIDTH 960 0
DWIDTH 24 0
BBX 24 18 0 -1
BITMAP
7FFFFF
E00003
F00007
F8000D
DC0019
CE0031
C70061
C380C1
C1C181
C0E381
C1FEC1
C33C61
C60031
CC0019
D8000D
F00007
E00003
FFFFFF
ENDCHAR
STARTCHAR 002A
ENCODING 42
SWIDTH 960 0
DWIDTH 24 0
BBX 21 26 2 -5
BITMAP
006000
007000
007000
007000
007000
007000
007000
1E7780
0FFF00
07FE00
7BFDE0
7DFBF0
BEF7F8
DF6FF8
EF9FF8
F7FFF8
FBFFF8
FDFFF8
FEFBF8
FF7DF8
FF9EF8
FFFF78
FFFFB8
FFFFD8
FFFFE8
7FFFF0
ENDCHAR
STARTCHAR 002B
ENCODING 43
SWIDTH 960 0
DWIDTH 24 0
BBX 24 24 0 -4
BITMAP
FFFFFF
FFFFFF
FFFFFF
E0FF03
E1FFC7
E1FF87
E0FF07
E87F17
FCFFBF
FFFFFF
FFFFFF
FFFFFF
FFFFFF
FFFFFF
FFFFFF
FCFFBF
E87F17
E07F07
E0FF87
E1FFC7
E0FF03
FFFFFF
FFFFFF
FFFFFF
ENDCHAR
STARTCHAR 002C
ENCODING 44
SWIDTH 960 0
DWIDTH 24 0
BBX 24 24 0 -4
BITMAP
000078
0007FC
000FFE
001FFF
003FCF
007FCF
00FFFF
01FFFF
03FFFE
07FFFE
0EFFFE
1E7FFC
3B3FF8
799FF0
FCCFE0
7E67C0
3F3380
1F9F00
0FCE00
07FC00
03F800
01F000
00E000
004000
ENDCHAR
STARTCHAR 002D
ENCODING 45
SWIDTH 960 0
DWIDTH 24 0
BBX 24 24 0 -4
BITMAP
007E00
03FFC0
070070
0C0038
18001C
34018C
220386
610782
408F83
C0FF83
C0FF81
C0FF81
C0FF81
C0FF81
C0FF83
400F83
600782
6003C6
3001AC
18009C
0C0038
070070
03F7C0
00FF00
ENDCHAR
STARTCHAR 002E
ENCODING 46
SWIDTH 960 0
DWIDTH 24 0
BBX 21 26 2 -5
BITMAP
3FFFF0
600030
600010
600010
600010
600010
600010
600010
600010
600010
600010
600010
7FFFF0
000000
000000
7FFFF0
7FF870
7FFFF0
7FFFF0
3FFFE0
002000
002000
002000
01FC00
FFFFF8
01FC00
ENDCHAR
STARTCHAR 002F
ENCODING 47
SWIDTH 960 0
DWIDTH 24 0
BBX 24 24 0 -4
BITMAP
103E0C
187F0C
18FF18
C8FF99
CCFF9B
4CFFB3
6CFFB3
6CFFB2
6CFFB6
6CFFB6
6CFFB6
6CFFB6
6CFFB2
6CFFB3
4CFF93
CCFF9B
D8FF19
187E08
103C0C
103C04
003C00
003C00
003C00
003C00
ENDCHAR
STARTCHAR 0030
ENCODING 48
SWIDTH 960 0
DWIDTH 24 0
BBX 24 24 0 -4
BITMAP
007F00
03FFC0
07FFF0
0FFFF8
1EFFFC
3CFF1C
387E0E
703E0E
703C07
E03C07
E06607
E06207
FFC3FF
FFE7FF
FFFFFF
7FC3FF
7FC1FE
7F81FE
3F00FC
1F00FC
0F00F8
07FFF0
03FFC0
00FF00
ENDCHAR
STARTCHAR 0031
ENCODING 49
SWIDTH 960 0
DWIDTH 24 0
BBX 24 26 0 -5
BITMAP
003C00
003E00
003E00
013E80
033EE0
0F3EF0
1F3EF8
1E3E7C
3C3E3C
783E1E
783E0E
703E0F
703E0F
F03E0F
F03C0F
70000F
70000F
78000E
78001E
3C003E
3E007C
1F00F8
0FFFF0
07FFE0
01FFC0
007E00
ENDCHAR
STARTCHAR 0032
ENCODING 50
SWIDTH 960 0
DWIDTH 24 0
BBX 23 26 1 -5
BITMAP
003000
007800
007800
007800
007800
007800
F0383C
F8307E
FC30FC
7E31F8
1F33E0
03FF00
007C00
007C00
01FF00
1FB3E0
7E31F8
FC30FC
F8307E
F0383C
407808
007800
007800
007800
007800
003000
ENDCHAR
STARTCHAR 0033
ENCODING 51
SWIDTH 960 0
DWIDTH 24 0
BBX 24 22 0 -3
BITMAP
000800
001800
001C00
003C00
003E00
007E00
007F00
03FFC0
FFFFFF
7FFFFE
3FFFFC
1FFFF8
0FFFF0
07FFE0
03FFC0
03FFC0
03FFE0
03FFE0
07FFE0
07C3E0
0780E0
060030
ENDCHAR
STARTCHAR 0034
ENCODING 52
SWIDTH 960 0
DWIDTH 24 0
BBX 24 18 0 -1
BITMAP
7FFFFE
3FFFFE
DFFFFD
EFFFFB
F7FFF7
FBFFEF
FDFFDF
FEFFBF
FF7F7F
FF3EFF
FEDDFF
FDE3FF
FBFFFF
F7FFFF
EFFFFF
DFFFFF
BFFFFF
7FFFFE
ENDCHAR
STARTCHAR 0035
ENCODING 53
SWIDTH 960 0
DWIDTH 24 0
BBX 24 19 0 -2
BITMAP
000800
003CE0
006BE0
019DE0
037E60
0CFFB0
1BFFC8
67FFE6
CFFFF1
0FFFF0
0FFFF0
0FC3F0
0FC3F0
0FC3F0
0FC3F0
0FC3F0
0FC3F0
0FC3F0
0FC3F0
ENDCHAR
STARTCHAR 0036
ENCODING 54
SWIDTH 960 0
DWIDTH 24 0
BBX 24 26 0 -5
BITMAP
000020
1E00F0
1E00F0
1E00F0
040020
3F81F8
7FC3FC
FFC3FE
FFC3FE
FFC6FE
FFC7FA
FFC7FB
FFC5FF
FFCDFF
FFC3FC
3F03FE
3F03FE
3F07FE
3F00F8
3F00F8
3F00F8
3F00F8
3F00F8
3F00F8
3F00F8
1200D0
ENDCHAR
STARTCHAR 0037
ENCODING 55
SWIDTH 960 0
DWIDTH 24 0
BBX 24 18 0 -1
BITMAP
03F800
0F1E00
1E0F00
3E0F80
7E0F80
7E1FC0
67F9C0
C1F040
C1F060
C1F060
C3F040
77BDC0
7E0FC0
7E0F80
3E0F80
1E0F83
0FBEFF
03F878
ENDCHAR
STARTCHAR 0038
ENCODING 56
SWIDTH 960 0
DWIDTH 24 0
BBX 19 26 3 -5
BITMAP
7FFFC0
FFFFE0
C000E0
C00060
C00060
C00060
C00060
FFFFE0
FFFFE0
C71860
C71860
C71860
FFFFE0
FFFFE0
FFFFE0
C71860
C71860
C71860
FFFFE0
FFFFE0
C71860
C71860
C71860
FFFFE0
FFFFE0
FFFFC0
ENDCHAR
STARTCHAR 0039
ENCODING 57
SWIDTH 960 0
DWIDTH 24 0
BBX 24 23 0 -3
BITMAP
E00000
700000
300000
19FFFF
19FFFE
0DFFFE
0CFFFC
04FFFC
06FFFC
06FFF8
06FFF8
060000
060000
020000
03FFFC
03FFFE
000000
000000
03803C
07C07C
07C07C
07C03C
010018
ENDCHAR
STARTCHAR 003A
ENCODING 58
SWIDTH 960 0
DWIDTH 24 0
BBX 24 24 0 -4
BITMAP
0001F0
0007F8
000FFC
001FC6
001F87
003FC7
003FCF
003FFF
003FFF
001FFF
005FFE
00CFFE
01E7FC
03F3F0
07FE00
0FF000
1FF000
3FC000
7E0000
FE0000
FE0000
FE0000
780000
380000
ENDCHAR
STARTCHAR 003B
ENCODING 59
SWIDTH 960 0
DWIDTH 24 0
BBX 24 24 0 -4
BITMAP
001800
001800
001800
001800
001800
001800
001800
001800
001800
001800
001800
FFFFFF
FFFFFF
001800
001800
001800
001800
001800
001800
001800
001800
001800
001800
001800
ENDCHAR
STARTCHAR 003C
ENCODING 60
SWIDTH 960 0
DWIDTH 24 0
BBX 24 20 0 -2
BITMAP
000800
001800
001C00
003E00
007600
006700
00E300
00C380
0181C0
0380C0
0300E0
070060
060070
0C0038
1C0018
18001C
38000C
30000E
600006
E00003
ENDCHAR
STARTCHAR 003D
ENCODING 61
SWIDTH 960 0
DWIDTH 24 0
BBX 24 24 0 -4
BITMAP
007E00
0381C0
060030
080018
10000C
23FE04
21C302
41C382
41C381
C1C381
81C301
81DE01
81FC01
81CC01
81CE01
41C701
41C302
61C382
23E1C4
14102C
080018
060030
0381C0
00FF00
ENDCHAR
STARTCHAR 003E
ENCODING 62
SWIDTH 960 0
DWIDTH 24 0
BBX 24 24 0 -4
BITMAP
007E00
0381C0
060030
080018
101E4C
20E1C4
2180C2
430042
470021
C60001
860001
8E0001
8E0001
860001
870001
470001
430022
618042
20F384
101C0C
080018
060030
0381C0
00FF00
ENDCHAR
STARTCHAR 003F
ENCODING 63
SWIDTH 960 0
DWIDTH 24 0
BBX 24 24 0 -4
BITMAP
007E00
01FFC0
07FFE0
0F80F8
1E0038
3C001C
38000E
70000E
700007
E00007
E00007
E00007
E00007
E00007
E00007
600007
70000E
78000E
38001C
1E003C
0F00F8
07FFF0
03FFC0
00FF00
ENDCHAR
STARTCHAR 0040
ENCODING 64
SWIDTH 960 0
DWIDTH 24 0
BBX 24 24 0 -4
BITMAP
000800
001800
001800
003C00
003C00
007E00
007E00
00FF00
00FF00
01FF80
01FF80
03FFC0
03FFC0
07FFE0
07FFE0
0FFFF0
0FFFF0
1FFFF8
1FFFF8
3FFFFC
3FFFFC
7FFFFE
7FFFFE
FFFFFF
ENDCHAR
STARTCHAR 0041
ENCODING 65
SWIDTH 960 0
DWIDTH 24 0
BBX 24 24 0 -4
BITMAP
808000
C04000
E07000
F07800
FC7C00
FE7F00
FF7F80
FFDFC0
FFEFE0
FFF7F8
FFFDFC
FFFEFE
FFFFFF
FFFDFC
FFF7F8
FFEFF0
FFDFC0
FF7F80
FE7F00
FC7C00
F07800
E07000
C04000
808000
ENDCHAR
STARTCHAR 0042
ENCODING 66
SWIDTH 960 0
DWIDTH 24 0
BBX 21 26 2 -5
BITMAP
8001F8
C001F8
E001F8
F801F8
FE01F8
FF01F8
FFC1F8
FFF1F8
FFF9F8
FFFFF8
FFFFF8
FFFFF8
FFFFF8
FFFFF8
FFFFF8
FFFFF8
FFFFF8
FFF9F8
FFF1F8
FFC1F8
FF01F8
FE01F8
F801F8
F001F8
C001F8
8001F8
ENDCHAR
STARTCHAR 0043
ENCODING 67
SWIDTH 960 0
DWIDTH 24 0
BBX 18 26 3 -5
BITMAP
FF1FC0
FF1FC0
FF1FC0
FF1FC0
FF1FC0
FF1FC0
FF1FC0
FF1FC0
FF1FC0
FF1FC0
FF1FC0
FF1FC0
FF1FC0
FF1FC0
FF1FC0
FF1FC0
FF1FC0
FF1FC0
FF1FC0
FF1FC0
FF1FC0
FF1FC0
FF1FC0
FF1FC0
FF1FC0
FF1FC0
ENDCHAR
STARTCHAR 0044
ENCODING 68
SWIDTH 960 0
DWIDTH 24 0
BBX 21 26 2 -5
BITMAP
800000
C00000
E00000
F80000
FE0000
FF0000
FFC000
FFF000
FFF800
FFFE00
FFFF00
FFFFC0
FFFFF0
FFFFF8
FFFFC0
FFFF80
FFFE00
FFF800
FFF000
FFC000
FF8000
FE0000
F80000
F00000
C00000
800000
ENDCHAR
STARTCHAR 0045
ENCODING 69
SWIDTH 960 0
DWIDTH 24 0
BBX 24 24 0 -4
BITMAP
007E00
01FFC0
07FFE0
0FFFF8
1FFFFC
3FFFFC
3FFFFE
7FC1FE
7F00FF
FF007F
FE007F
FE007F
FE007F
FE007F
FF007F
7F00FF
7F81FE
3FFFFE
3FFFFC
1FFFFC
0FFFF8
07FFF0
03FFC0
007F00
ENDCHAR
STARTCHAR 0046
ENCODING 70
SWIDTH 960 0
DWIDTH 24 0
BBX 24 24 0 -4
BITMAP
FFFFFF
FFFFFF
FFFFFF
FFFFFF
FFFFFF
FFFFFF
FFFFFF
FFFFFF
FFFFFF
FFFFFF
FFFFFF
FFFFFF
FFFFFF
FFFFFF
FFFFFF
FFFFFF
FFFFFF
FFFFFF
FFFFFF
FFFFFF
FFFFFF
FFFFFF
FFFFFF
FFFFFF
ENDCHAR
STARTCHAR 0047
ENCODING 71
SWIDTH 960 0
DWIDTH 24 0
BBX 21 26 2 -5
BITMAP
F80008
F80018
F80078
F801F8
F803F8
F80FF8
F83FF8
F87FF8
F9FFF8
FBFFF8
FFFFF8
FFFFF8
FFFFF8
FFFFF8
FFFFF8
FFFFF8
FFFFF8
F9FFF8
F87FF8
F83FF8
F80FF8
F807F8
F801F8
F80078
F80038
F80008
ENDCHAR
STARTCHAR 0048
ENCODING 72
SWIDTH 960 0
DWIDTH 24 0
BBX 24 24 0 -4
BITMAP
000101
000301
000707
000F0F
003F1F
007F7F
00FEFF
03FDFF
07F3FF
0FEFFF
3FDFFF
7F3FFF
FF7FFF
3FDFFF
1FEFFF
07F7FF
03FDFF
01FEFF
007F7F
003F1F
001F0F
000707
000301
000101
ENDCHAR
STARTCHAR 0049
ENCODING 73
SWIDTH 960 0
DWIDTH 24 0
BBX 24 24 0 -4
BITMAP
E80000
E60000
E70000
E72000
E73000
E73800
E73E00
E73F80
E73FC0
E73FF0
E73FFC
E73FFE
E73FFF
E73FFC
E73FF0
E73FE0
E73F80
E73E00
E73C00
E73000
E72000
E70000
E60000
E40000
ENDCHAR
STARTCHAR 004A
ENCODING 74
SWIDTH 960 0
DWIDTH 24 0
BBX 24 24 0 -4
BITMAP
000800
001800
001C00
003E00
007E00
00FF00
00FF80
01FFC0
03FFC0
07FFE0
0FFFF0
0FFFF8
1FFFF8
3FFFFC
7FFFFE
FFFFFF
000000
000000
FFFFFF
FFFFFF
FFFFFF
FFFFFF
FFFFFF
FFFFFF
ENDCHAR
STARTCHAR 004B
ENCODING 75
SWIDTH 960 0
DWIDTH 24 0
BBX 24 24 0 -4
BITMAP
00001C
00003C
000038
000078
000070
0000F0
0000E0
3FFFE0
7FFFC0
7FFFC0
FFFFE0
01FFF0
000FF0
001FF8
001DF8
003CFC
00387C
00703E
03F01E
07E00F
0BF00F
007006
003002
001000
ENDCHAR
STARTCHAR 004C
ENCODING 76
SWIDTH 960 0
DWIDTH 24 0
BBX 20 26 2 -5
BITMAP
000080
000080
000180
03FDC0
0FFFC0
1FFFC0
3C7FE0
600FE0
800FF0
001FF0
003FF0
003000
000000
000000
006000
3FC000
FF8000
7F8000
7F0030
7FE1E0
3FFFC0
3FFF80
1FFE00
180000
080000
080000
ENDCHAR
STARTCHAR 004D
ENCODING 77
SWIDTH 960 0
DWIDTH 24 0
BBX 24 20 0 -2
BITMAP
01FC00
07FF00
1FFF80
1E07C0
3C01E0
7800F0
700070
F00070
E003FF
E001FE
E000FC
E00078
F00070
700030
780000
3C0000
3E0600
1FFF00
07FF00
01FC00
ENDCHAR
STARTCHAR 004E
ENCODING 78
SWIDTH 960 0
DWIDTH 24 0
BBX 24 18 0 -1
BITMAP
000004
00001E
00003F
00007F
0000FE
1001FC
7803F8
FC07F0
FE0FE0
7F1FC0
3FBF80
1FFF00
0FFE00
07FC00
03F800
01F000
00E000
004000
ENDCHAR
STARTCHAR 004F
ENCODING 79
SWIDTH 960 0
DWIDTH 24 0
BBX 24 24 0 -4
BITMAP
7E0000
FFC000
FFF000
7FFC00
3FFF00
00FF80
003FC0
7C0FE0
FF87F0
FFC1F0
7FF1F8
3FF8FC
01FC7C
00FE3E
003E3E
003F3E
3C1F1F
7E0F9F
7F0F9F
FF0F8F
FF078F
7F078F
7E078F
3C0706
ENDCHAR
STARTCHAR 0050
ENCODING 80
SWIDTH 960 0
DWIDTH 24 0
BBX 23 26 1 -5
BITMAP
007800
01FF00
07FF80
0FFFC0
1F87E0
1E01E0
3E00F0
3C00F0
3C0070
3C0070
3C0070
3C0070
FFFFFE
FFFFFE
FFFFFE
FFCFFE
FF87FE
FFC7FE
FFCFFE
FFCFFE
FFCFFE
FFCFFE
FFFFFE
FFFFFE
FFFFFE
FFFFFE
ENDCHAR
STARTCHAR 0051
ENCODING 81
SWIDTH 960 0
DWIDTH 24 0
BBX 24 24 0 -4
BITMAP
07FFE0
07FFE0
07FFE0
07FFE0
07FFE0
07FFE0
07FFE0
07FFE0
07FFE0
000800
000800
000800
07FFF0
040010
040010
040010
FFC3FF
FFC3FF
FFC3FF
FFC3FF
FFC3FF
FFC3FF
FFC3FF
FFC3FF
ENDCHAR
STARTCHAR 0052
ENCODING 82
SWIDTH 960 0
DWIDTH 24 0
BBX 24 14 0 1
BITMAP
006000
003000
03FCE0
1FFEFC
3FFEFE
7C381E
707007
E06007
E00007
E00007
70000F
7FFFFE
3FFFFC
1FFFF8
ENDCHAR
STARTCHAR 0053
ENCODING 83
SWIDTH 960 0
DWIDTH 24 0
BBX 24 20 0 -2
BITMAP
0001C0
0003E0
0007F0
000FF8
FFFFFC
FFFFFE
FFFFFF
FF79CF
F061C3
EFFDDF
EFFDDF
EFFDDF
EFFDDE
DFFDDE
DFFDDE
DFFDDE
BFFE3C
BFFFFC
3FFFFC
3FFFF8
ENDCHAR
STARTCHAR 0054
ENCODING 84
SWIDTH 960 0
DWIDTH 24 0
BBX 24 24 0 -4
BITMAP
007E00
03FFC0
07FFE0
0FFFF8
1F00F8
3E007C
3F003E
7B801E
79C00F
F0E00F
F0700F
F03807
F01C07
F00E0F
F0070F
70038F
7801DE
7C00FE
3E007C
1F00FC
0FFFF8
07FFF0
03FFC0
007F00
ENDCHAR
STARTCHAR 0055
ENCODING 85
SWIDTH 960 0
DWIDTH 24 0
BBX 24 22 0 -3
BITMAP
000800
001800
003800
007800
00F800
01F800
01F800
FFF800
FFF800
FFF800
FFF9FF
FFF9FF
FFF800
FFF800
FFF800
01F800
01F800
00F800
007800
003800
001800
000800
ENDCHAR
STARTCHAR 0056
ENCODING 86
SWIDTH 960 0
DWIDTH 24 0
BBX 24 22 0 -3
BITMAP
000C00
001C00
003C00
003C00
007C00
00FC00
01FC00
FFFC38
FFFC38
FFFC38
FFFDFF
FFFDFF
FFFC38
FFFC38
FFFC38
01FC38
00FC00
00FC00
007C00
003C00
001C00
000C00
ENDCHAR
STARTCHAR 0057
ENCODING 87
SWIDTH 960 0
DWIDTH 24 0
BBX 24 24 0 -4
BITMAP
040030
1F81FC
7FC3FE
7FE7FF
FFFFFF
FFFFFF
FFFFFF
7FFFFF
7FFFFF
7FFFFE
3FFFFE
1FFFFC
0FFFF8
07FFF0
03FFE0
01FFC0
00FF80
007F00
003E00
001C00
001C00
000800
000800
000800
ENDCHAR
STARTCHAR 0058
ENCODING 88
SWIDTH 960 0
DWIDTH 24 0
BBX 20 26 2 -5
BITMAP
060000
060000
060000
060000
060000
060000
060000
062000
067000
067700
067730
E67770
E7FFF0
E7FFF0
E7FFF0
E7FFF0
EFFFF0
FFFFF0
FFFFF0
7FFFF0
3FFFF0
3FFFF0
1FFFF0
0FFFF0
0FFFF0
07FFE0
ENDCHAR
STARTCHAR 0059
ENCODING 89
SWIDTH 960 0
DWIDTH 24 0
BBX 18 26 3 -5
BITMAP
00C000
00C000
00C000
0CCC00
0ECC00
0ECC00
0ECCC0
0ECCC0
0ECCC0
0ECCC0
0ECCC0
0ECCC0
CECCC0
EFFFC0
EFFFC0
EFFFC0
EFFFC0
FFFFC0
FFFFC0
FFFFC0
7FFFC0
3FFFC0
3FFFC0
1FFFC0
0FFFC0
07FF80
ENDCHAR
STARTCHAR 005A
ENCODING 90
SWIDTH 960 0
DWIDTH 24 0
BBX 24 24 0 -4
BITMAP
000008
00060C
000E0C
001E0E
003E66
007E66
00FE67
01FE67
FFFE73
FFFE33
FFFE33
FFFE33
FFFE33
FFFE33
FFFE33
FFFE73
FFFE67
01FE67
00FE66
007E46
003E4E
001E0C
000E0C
000618
ENDCHAR
STARTCHAR 005B
ENCODING 91
SWIDTH 960 0
DWIDTH 24 0
BBX 24 24 0 -4
BITMAP
800000
E00000
F80000
FE0000
FF8000
FFE000
FFF800
FFFE00
FFFF80
FFFFE0
FFFFF8
FFFFFE
FFFFFF
FFFFF8
FFFFE0
FFFF80
FFFE00
FFF800
FFE000
FF8000
FE0000
F80000
E00000
800000
ENDCHAR
STARTCHAR 005C
ENCODING 92
SWIDTH 960 0
DWIDTH 24 0
BBX 24 24 0 -4
BITMAP
FFFFFF
7FFFFE
7FFFFE
3FFFFC
3FFFFC
1FFFF8
1FFFF8
0FFFF0
0FFFF0
07FFE0
07FFE0
03FFC0
03FFC0
01FF80
01FF80
00FF00
00FF00
007E00
007E00
003C00
003C00
001800
001800
000800
ENDCHAR
STARTCHAR 005D
ENCODING 93
SWIDTH 960 0
DWIDTH 24 0
BBX 24 24 0 -4
BITMAP
000001
000007
00001F
00007F
0001FF
0007FF
001FFF
007FFF
01FFFF
07FFFF
1FFFFF
7FFFFF
FFFFFF
1FFFFF
07FFFF
01FFFF
007FFF
001FFF
0007FF
0001FF
00007F
00001F
000007
000001
ENDCHAR
STARTCHAR 005E
ENCODING 94
SWIDTH 960 0
DWIDTH 24 0
BBX 24 8 0 4
BITMAP
080008
10000C
300006
7FFFFF
FFFFFF
300006
100004
180008
ENDCHAR
STARTCHAR 005F
ENCODING 95
SWIDTH 960 0
DWIDTH 24 0
BBX 9 26 8 -5
BITMAP
0800
1800
3C00
7E00
9980
1800
1800
1800
1800
1800
1800
1800
1800
1800
1800
1800
1800
1800
1800
1800
1800
9880
7F00
3E00
1C00
0800
ENDCHAR
STARTCHAR 0060
ENCODING 96
SWIDTH 960 0
DWIDTH 24 0
BBX 9 26 8 -5
BITMAP
1800
1800
1800
1800
1800
1800
1800
1800
1800
1800
1800
1800
1800
1800
1800
1800
1800
1800
1800
1800
1800
9880
7F00
3E00
1C00
0800
ENDCHAR
STARTCHAR 0061
ENCODING 97
SWIDTH 960 0
DWIDTH 24 0
BBX 24 14 0 1
BITMAP
000008
006008
03FE18
07FF9C
0FFFFC
1FFFFC
3FFFFC
380FFE
6003FE
4003FE
8007FE
000FFF
001FFF
003FFF
ENDCHAR
STARTCHAR 0062
ENCODING 98
SWIDTH 960 0
DWIDTH 24 0
BBX 24 14 0 1
BITMAP
080000
080000
183FC0
1CFFE0
1FFFF0
1FFFF8
3FFFFC
3FF81C
3FE006
3FE002
7FF001
7FF000
7FF800
FFFC00
ENDCHAR
STARTCHAR 0063
ENCODING 99
SWIDTH 960 0
DWIDTH 24 0
BBX 24 26 0 -5
BITMAP
003E00
007E00
007E00
007E00
007E00
007E00
007E00
007E00
007E00
007E00
007E00
007E00
707E06
FC7E3F
FF7EFF
7FFFFF
3FFFFE
1FFFFC
0FFFF8
07FFF0
03FFE0
01FFC0
00FF80
007F00
003E00
001C00
ENDCHAR
STARTCHAR 0064
ENCODING 100
SWIDTH 960 0
DWIDTH 24 0
BBX 24 24 0 -4
BITMAP
000038
00007C
3000FE
7801FF
F803FF
FC07FE
FC0FFC
FE1FF8
FE3FF0
FE7FE0
FFFFC0
FFFF80
FFFF00
FFFE00
FFFC00
FFF800
FFF800
FFFF00
FFFFE0
FFFFF8
FFFFFC
FFFFFC
7FFFFC
3FFFF8
ENDCHAR
STARTCHAR 0065
ENCODING 101
SWIDTH 960 0
DWIDTH 24 0
BBX 24 24 0 -4
BITMAP
1C0000
3E0000
7F000E
FF801F
FFC01F
7FE03F
3FF03F
1FF83F
0FFC3F
07FE7F
03FF7F
01FFFF
00FFFF
007FFF
003FFF
001FFF
001FFF
007FFF
03FFFF
0FFFFF
1FFFFF
3FFFFF
1FFFFF
0FFFFE
ENDCHAR
STARTCHAR 0066
ENCODING 102
SWIDTH 960 0
DWIDTH 24 0
BBX 24 23 0 -3
BITMAP
001000
007800
00F800
01F800
03F800
07F000
0FF000
1FE000
3FE000
7FFFFF
FFFFFF
FFFFFF
FFFFFF
7FFFFF
3FFFFF
1FE000
0FE000
07F000
03F000
01F800
00F800
007800
003800
ENDCHAR
STARTCHAR 0067
ENCODING 103
SWIDTH 960 0
DWIDTH 24 0
BBX 24 22 0 -3
BITMAP
001E00
001F00
001F80
000FC0
000FE0
0007F0
0007F8
0003FC
0003FE
FFFFFF
FFFFFF
FFFFFF
FFFFFF
7FFFFE
0003FC
0007F8
0007F0
000FE0
000FC0
001F80
001F00
001E00
ENDCHAR
STARTCHAR 0068
ENCODING 104
SWIDTH 960 0
DWIDTH 24 0
BBX 24 26 0 -5
BITMAP
001800
003E00
007F00
00FF80
01FFC0
03FFE0
07FFF0
0FFFF8
1FFFFC
3FFFFE
7FFFFE
FFFEFF
FE7E3F
787E0F
007E00
007E00
007E00
007E00
007E00
007E00
007E00
007E00
007E00
007E00
003E00
003E00
ENDCHAR
STARTCHAR 0069
ENCODING 105
SWIDTH 960 0
DWIDTH 24 0
BBX 24 24 0 -4
BITMAP
7FFFF8
FFFFFC
FFFFFC
FFFFFC
FFFFF8
FFFFE0
FFFF00
FFF800
FFF800
FFFC00
FFFE00
FFFF00
FFFF80
FE7FC0
FE3FE0
FE1FF0
FC0FF8
FC07FC
FC03FE
F801FF
7800FF
30007F
00003E
00001C
ENDCHAR
STARTCHAR 006A
ENCODING 106
SWIDTH 960 0
DWIDTH 24 0
BBX 24 24 0 -4
BITMAP
1FFFFE
1FFFFF
3FFFFF
1FFFFF
0FFFFF
03FFFF
007FFF
000FFF
001FFF
003FFF
007FFF
00FFFF
01FFFF
03FF7F
07FE7F
0FFC3F
1FF83F
3FF03F
7FE01F
FFC01F
FF800F
7F0004
3E0000
1C0000
ENDCHAR
STARTCHAR 006B
ENCODING 107
SWIDTH 960 0
DWIDTH 24 0
BBX 24 21 0 -3
BITMAP
000400
000200
000300
000380
0003C0
01FFE0
07FFF0
1FFFF8
3FFFFC
3FFFFE
7FFFFF
7F0FFC
7C0FF0
F00FE0
E00F80
E00E00
C01C00
C01000
800000
800000
800000
ENDCHAR
STARTCHAR 006C
ENCODING 108
SWIDTH 1080 0
DWIDTH 27 0
BBX 27 23 0 -4
BITMAP
00100000
00300000
00700000
00F00000
01F00000
03FF8000
07FFF800
0FFFFC00
1FFFFF00
3FFFFF00
7FFFFF80
FFFFFFC0
3FF83FC0
0FFC0FC0
03FC03C0
01FC01E0
007C00E0
001C00E0
00040060
00020060
00000020
00000020
00000020
ENDCHAR
STARTCHAR 006D
ENCODING 109
SWIDTH 960 0
DWIDTH 24 0
BBX 21 26 2 -5
BITMAP
03FC00
03FC00
03FC00
03FC00
03FC00
03FC00
03FC00
03FC00
03FC00
03FC00
03FC00
03FC00
03FC00
03FC00
FFFFF8
7FFFF0
7FFFE0
3FFFC0
1FFF80
0FFF00
07FE00
03FC00
01F800
00F000
007000
002000
ENDCHAR
STARTCHAR 006E
ENCODING 110
SWIDTH 960 0
DWIDTH 24 0
BBX 24 20 0 -2
BITMAP
002000
006000
00E000
01E000
03E000
07E000
0FFFFF
1FFFFF
3FFFFF
7FFFFF
FFFFFF
3FFFFF
1FFFFF
0FFFFF
07E000
03E000
01E000
00E000
006000
002000
ENDCHAR
STARTCHAR 006F
ENCODING 111
SWIDTH 960 0
DWIDTH 24 0
BBX 24 20 0 -2
BITMAP
000400
000600
000700
000780
0007C0
0007E0
FFFFF0
FFFFF8
FFFFFE
FFFFFF
FFFFFF
FFFFFE
FFFFFC
FFFFF0
0007E0
0007C0
000780
000700
000600
000400
ENDCHAR
STARTCHAR 0070
ENCODING 112
SWIDTH 960 0
DWIDTH 24 0
BBX 21 26 2 -5
BITMAP
002000
006000
00F000
01F800
03FC00
07FE00
0FFF00
0FFF80
1FFFC0
3FFFE0
7FFFF0
FFFFF8
03FC00
03FC00
03FC00
03FC00
03FC00
03FC00
03FC00
03FC00
03FC00
03FC00
03FC00
03FC00
03FC00
03FC00
ENDCHAR
STARTCHAR 0071
ENCODING 113
SWIDTH 960 0
DWIDTH 24 0
BBX 22 26 1 -5
BITMAP
000100
000100
000380
000780
0007C0
000FC0
000FE0
F01FE0
F01FF0
F03FF8
F07FF8
F07FFC
F08780
F00780
F00780
F00780
F00780
F00780
F80780
780780
7C0F80
7E3F00
3FFF00
1FFE00
0FF800
03E000
ENDCHAR
STARTCHAR 0072
ENCODING 114
SWIDTH 960 0
DWIDTH 24 0
BBX 24 20 0 -2
BITMAP
002000
00E000
01E000
07E000
1FFF80
7FFFF0
FFFFFC
3FFFFE
0FE03E
03E01F
00E00F
00600F
00100F
00000F
00000F
00001F
0000FE
01FFFC
01FFF8
01FFF0
ENDCHAR
STARTCHAR 0073
ENCODING 115
SWIDTH 960 0
DWIDTH 24 0
BBX 24 19 0 -2
BITMAP
01FF80
07FFF0
1FFFF8
3FFFFC
7FFFFE
7FFFFF
FFFFFF
FFFFFF
FFFFFF
FFFFFF
7FFFFE
7FFFFE
3FFFFC
0FFFF8
07FFE0
00FE00
006000
00C000
030000
ENDCHAR
STARTCHAR 0074
ENCODING 116
SWIDTH 960 0
DWIDTH 24 0
BBX 24 20 0 -2
BITMAP
7FFFFF
FFFFFF
FFFFFF
FFFFFF
FFFFFF
FFFFFF
FFFFFF
FFFFFF
FFFFFF
FFFFFF
FFFFFF
FFFFFF
FFFFFF
FFFFFF
FFFFFF
7FFFFE
003800
006000
004000
008000
ENDCHAR
STARTCHAR 0075
ENCODING 117
SWIDTH 960 0
DWIDTH 24 0
BBX 24 19 0 -2
BITMAP
01FFC0
0FFFF0
1FFFF8
3FFFFC
7FFFFE
7FFFFF
FFFFFF
FFFFFF
FFFFFF
FFFFFF
7FFFFE
3FFFFE
1FFFFC
0FFFF8
03FFE0
003F00
000700
000380
000040
ENDCHAR
STARTCHAR 0076
ENCODING 118
SWIDTH 960 0
DWIDTH 24 0
BBX 24 20 0 -2
BITMAP
7FFFFF
FFFFFF
FFFFFF
FFFFFF
FFFFFF
FFFFFF
FFFFFF
FFFFFF
FFFFFF
FFFFFF
FFFFFF
FFFFFF
FFFFFF
FFFFFF
FFFFFF
7FFFFE
000C00
000600
000200
000100
ENDCHAR
STARTCHAR 0077
ENCODING 119
SWIDTH 960 0
DWIDTH 24 0
BBX 24 24 0 -4
BITMAP
001C00
003C00
003E00
0E7E78
1FFFF8
1FFFF8
1FFFF8
0FFFF0
0FE3F0
1F81F0
7F80FF
FF00FF
FF00FF
7F80FF
0F81F0
0FC3E0
0FFFF0
1FFFF8
1FFFF8
1FFEF8
0E3E78
003E00
003C00
001C00
ENDCHAR
STARTCHAR 0078
ENCODING 120
SWIDTH 960 0
DWIDTH 24 0
BBX 24 20 0 -2
BITMAP
260000
3E0000
1F8000
F38000
618700
33C738
7FC7F8
5F7FF8
1B7FF8
087E7F
003C3F
00381F
00781C
00FC3C
00FE7E
001FFF
000FE6
001FE0
001CE0
000060
ENDCHAR
STARTCHAR 0079
ENCODING 121
SWIDTH 960 0
DWIDTH 24 0
BBX 24 22 0 -3
BITMAP
006000
03F83C
07FE7E
0FC0F0
0FC0FF
1FC0FE
7FE1FC
F8F1F8
787BF8
301FC0
001F00
003F80
007FC0
00FBE0
03F1F0
07E0F8
0FC07C
1F803E
3F001F
3E001F
3C000E
000004
ENDCHAR
STARTCHAR 007A
ENCODING 122
SWIDTH 960 0
DWIDTH 24 0
BBX 24 24 0 -4
BITMAP
000200
000600
000400
000C00
001C00
001C00
001C00
003800
003800
003801
0C383E
3F33FC
7FFFF8
E3FFC0
E3FC00
FF7000
7EF800
19F800
01DC00
019C00
019C00
01F800
01F800
00E000
ENDCHAR
STARTCHAR 007B
ENCODING 123
SWIDTH 960 0
DWIDTH 24 0
BBX 24 22 0 -3
BITMAP
0000F8
000070
000078
00005C
00000E
000006
000007
000003
000003
000003
C00003
C00003
C00003
600003
600006
700006
30000E
38001C
1E0038
0F80F0
03FFE0
00FF80
ENDCHAR
STARTCHAR 007C
ENCODING 124
SWIDTH 960 0
DWIDTH 24 0
BBX 24 22 0 -3
BITMAP
0F0000
0F0000
1E0000
3A0000
300000
700000
600000
600000
C00000
C00000
C00003
C00003
C00003
600003
600006
700006
30000E
38001C
1E0038
0F00F0
03FFE0
01FF80
ENDCHAR
STARTCHAR 007D
ENCODING 125
SWIDTH 480 0
DWIDTH 12 0
BBX 0 0 0 0
BITMAP
ENDCHAR
STARTCHAR 007E
ENCODING 126
SWIDTH 480 0
DWIDTH 12 0
BBX 0 0 0 0
BITMAP
ENDCHAR
STARTCHAR 00A0
ENCODING 160
SWIDTH 240 0
DWIDTH 6 0
BBX 0 0 0 0
BITMAP
ENDCHAR
STARTCHAR 00A1
ENCODING 161
SWIDTH 320 0
DWIDTH 8 0
BBX 0 0 0 0
BITMAP
ENDCHAR
STARTCHAR 00A2
ENCODING 162
SWIDTH 560 0
DWIDTH 14 0
BBX 0 0 0 0
BITMAP
ENDCHAR
STARTCHAR 00A3
ENCODING 163
SWIDTH 480 0
DWIDTH 12 0
BBX 0 0 0 0
BITMAP
ENDCHAR
STARTCHAR 00A4
ENCODING 164
SWIDTH 480 0
DWIDTH 12 0
BBX 0 0 0 0
BITMAP
ENDCHAR
STARTCHAR 00A5
ENCODING 165
SWIDTH 600 0
DWIDTH 15 0
BBX 0 0 0 0
BITMAP
ENDCHAR
STARTCHAR 00A6
ENCODING 166
SWIDTH 480 0
DWIDTH 12 0
BBX 0 0 0 0
BITMAP
ENDCHAR
STARTCHAR 00A7
ENCODING 167
SWIDTH 480 0
DWIDTH 12 0
BBX 0 0 0 0
BITMAP
ENDCHAR
STARTCHAR 00A8
ENCODING 168
SWIDTH 520 0
DWIDTH 13 0
BBX 0 0 0 0
BITMAP
ENDCHAR
STARTCHAR 00A9
ENCODING 169
SWIDTH 800 0
DWIDTH 20 0
BBX 0 0 0 0
BITMAP
ENDCHAR
STARTCHAR 00AA
ENCODING 170
SWIDTH 320 0
DWIDTH 8 0
BBX 0 0 0 0
BITMAP
ENDCHAR
STARTCHAR 00AB
ENCODING 171
SWIDTH 480 0
DWIDTH 12 0
BBX 0 0 0 0
BITMAP
ENDCHAR
STARTCHAR 00AC
ENCODING 172
SWIDTH 480 0
DWIDTH 12 0
BBX 0 0 0 0
BITMAP
ENDCHAR
STARTCHAR 00AD
ENCODING 173
SWIDTH 960 0
DWIDTH 24 0
BBX 24 24 0 -4
BITMAP
007E00
03FFC0
070070
0C0038
18001C
34018C
220386
610782
408F83
C0FF83
C0FF81
C0FF81
C0FF81
C0FF81
C0FF83
400F83
600782
6003C6
3001AC
18009C
0C0038
070070
03F7C0
00FF00
ENDCHAR
STARTCHAR 00AE
ENCODING 174
SWIDTH 800 0
DWIDTH 20 0
BBX 0 0 0 0
BITMAP
ENDCHAR
STARTCHAR 00AF
ENCODING 175
SWIDTH 320 0
DWIDTH 8 0
BBX 0 0 0 0
BITMAP
ENDCHAR
STARTCHAR 00B0
ENCODING 176
SWIDTH 320 0
DWIDTH 8 0
BBX 0 0 0 0
BITMAP
ENDCHAR
STARTCHAR 00B1
ENCODING 177
SWIDTH 480 0
DWIDTH 12 0
BBX 0 0 0 0
BITMAP
ENDCHAR
STARTCHAR 00B2
ENCODING 178
SWIDTH 480 0
DWIDTH 12 0
BBX 0 0 0 0
BITMAP
ENDCHAR
STARTCHAR 00B3
ENCODING 179
SWIDTH 480 0
DWIDTH 12 0
BBX 0 0 0 0
BITMAP
ENDCHAR
STARTCHAR 00B4
ENCODING 180
SWIDTH 520 0
DWIDTH 13 0
BBX 0 0 0 0
BITMAP
ENDCHAR
STARTCHAR 00B5
ENCODING 181
SWIDTH 560 0
DWIDTH 14 0
BBX 0 0 0 0
BITMAP
ENDCHAR
STARTCHAR 00B6
ENCODING 182
SWIDTH 520 0
DWIDTH 13 0
BBX 0 0 0 0
BITMAP
ENDCHAR
STARTCHAR 00B7
ENCODING 183
SWIDTH 240 0
DWIDTH 6 0
BBX 0 0 0 0
BITMAP
ENDCHAR
STARTCHAR 00B8
ENCODING 184
SWIDTH 520 0
DWIDTH 13 0
BBX 0 0 0 0
BITMAP
ENDCHAR
STARTCHAR 00B9
ENCODING 185
SWIDTH 480 0
DWIDTH 12 0
BBX 0 0 0 0
BITMAP
ENDCHAR
STARTCHAR 00BA
ENCODING 186
SWIDTH 360 0
DWIDTH 9 0
BBX 0 0 0 0
BITMAP
ENDCHAR
STARTCHAR 00BB
ENCODING 187
SWIDTH 480 0
DWIDTH 12 0
BBX 0 0 0 0
BITMAP
ENDCHAR
STARTCHAR 00BC
ENCODING 188
SWIDTH 840 0
DWIDTH 21 0
BBX 0 0 0 0
BITMAP
ENDCHAR
STARTCHAR 00BD
ENCODING 189
SWIDTH 960 0
DWIDTH 24 0
BBX 0 0 0 0
BITMAP
ENDCHAR
STARTCHAR 00BE
ENCODING 190
SWIDTH 840 0
DWIDTH 21 0
BBX 0 0 0 0
BITMAP
ENDCHAR
STARTCHAR 00BF
ENCODING 191
SWIDTH 360 0
DWIDTH 9 0
BBX 0 0 0 0
BITMAP
ENDCHAR
STARTCHAR 00C0
ENCODING 192
SWIDTH 760 0
DWIDTH 19 0
BBX 0 0 0 0
BITMAP
ENDCHAR
STARTCHAR 00C1
ENCODING 193
SWIDTH 760 0
DWIDTH 19 0
BBX 0 0 0 0
BITMAP
ENDCHAR
STARTCHAR 00C2
ENCODING 194
SWIDTH 760 0
DWIDTH 19 0
BBX 0 0 0 0
BITMAP
ENDCHAR
STARTCHAR 00C3
ENCODING 195
SWIDTH 760 0
DWIDTH 19 0
BBX 0 0 0 0
BITMAP
ENDCHAR
STARTCHAR 00C4
ENCODING 196
SWIDTH 760 0
DWIDTH 19 0
BBX 0 0 0 0
BITMAP
ENDCHAR
STARTCHAR 00C5
ENCODING 197
SWIDTH 760 0
DWIDTH 19 0
BBX 0 0 0 0
BITMAP
ENDCHAR
STARTCHAR 00C6
ENCODING 198
SWIDTH 1040 0
DWIDTH 26 0
BBX 0 0 0 0
BITMAP
ENDCHAR
STARTCHAR 00C7
ENCODING 199
SWIDTH 680 0
DWIDTH 17 0
BBX 0 0 0 0
BITMAP
ENDCHAR
STARTCHAR 00C8
ENCODING 200
SWIDTH 560 0
DWIDTH 14 0
BBX 0 0 0 0
BITMAP
ENDCHAR
STARTCHAR 00C9
ENCODING 201
SWIDTH 560 0
DWIDTH 14 0
BBX 0 0 0 0
BITMAP
ENDCHAR
STARTCHAR 00CA
ENCODING 202
SWIDTH 560 0
DWIDTH 14 0
BBX 0 0 0 0
BITMAP
ENDCHAR
STARTCHAR 00CB
ENCODING 203
SWIDTH 560 0
DWIDTH 14 0
BBX 0 0 0 0
BITMAP
ENDCHAR
STARTCHAR 00CC
ENCODING 204
SWIDTH 320 0
DWIDTH 8 0
BBX 0 0 0 0
BITMAP
ENDCHAR
STARTCHAR 00CD
ENCODING 205
SWIDTH 320 0
DWIDTH 8 0
BBX 0 0 0 0
BITMAP
ENDCHAR
STARTCHAR 00CE
ENCODING 206
SWIDTH 320 0
DWIDTH 8 0
BBX 0 0 0 0
BITMAP
ENDCHAR
STARTCHAR 00CF
ENCODING 207
SWIDTH 320 0
DWIDTH 8 0
BBX 0 0 0 0
BITMAP
ENDCHAR
STARTCHAR 00D0
ENCODING 208
SWIDTH 760 0
DWIDTH 19 0
BBX 0 0 0 0
BITMAP
ENDCHAR
STARTCHAR 00D1
ENCODING 209
SWIDTH 760 0
DWIDTH 19 0
BBX 0 0 0 0
BITMAP
ENDCHAR
STARTCHAR 00D2
ENCODING 210
SWIDTH 800 0
DWIDTH 20 0
BBX 0 0 0 0
BITMAP
ENDCHAR
STARTCHAR 00D3
ENCODING 211
SWIDTH 800 0
DWIDTH 20 0
BBX 0 0 0 0
BITMAP
ENDCHAR
STARTCHAR 00D4
ENCODING 212
SWIDTH 800 0
DWIDTH 20 0
BBX 0 0 0 0
BITMAP
ENDCHAR
STARTCHAR 00D5
ENCODING 213
SWIDTH 800 0
DWIDTH 20 0
BBX 0 0 0 0
BITMAP
ENDCHAR
STARTCHAR 00D6
ENCODING 214
SWIDTH 800 0
DWIDTH 20 0
BBX 0 0 0 0
BITMAP
ENDCHAR
STARTCHAR 00D7
ENCODING 215
SWIDTH 480 0
DWIDTH 12 0
BBX 0 0 0 0
BITMAP
ENDCHAR
STARTCHAR 00D8
ENCODING 216
SWIDTH 800 0
DWIDTH 20 0
BBX 0 0 0 0
BITMAP
ENDCHAR
STARTCHAR 00D9
ENCODING 217
SWIDTH 720 0
DWIDTH 18 0
BBX 0 0 0 0
BITMAP
ENDCHAR
STARTCHAR 00DA
ENCODING 218
SWIDTH 720 0
DWIDTH 18 0
BBX 0 0 0 0
BITMAP
ENDCHAR
STARTCHAR 00DB
ENCODING 219
SWIDTH 720 0
DWIDTH 18 0
BBX 0 0 0 0
BITMAP
ENDCHAR
STARTCHAR 00DC
ENCODING 220
SWIDTH 720 0
DWIDTH 18 0
BBX 0 0 0 0
BITMAP
ENDCHAR
STARTCHAR 00DD
ENCODING 221
SWIDTH 600 0
DWIDTH 15 0
BBX 0 0 0 0
BITMAP
ENDCHAR
STARTCHAR 00DE
ENCODING 222
SWIDTH 560 0
DWIDTH 14 0
BBX 0 0 0 0
BITMAP
ENDCHAR
STARTCHAR 00DF
ENCODING 223
SWIDTH 600 0
DWIDTH 15 0
BBX 0 0 0 0
BITMAP
ENDCHAR
STARTCHAR 00E0
ENCODING 224
SWIDTH 440 0
DWIDTH 11 0
BBX 0 0 0 0
BITMAP
ENDCHAR
STARTCHAR 00E1
ENCODING 225
SWIDTH 440 0
DWIDTH 11 0
BBX 0 0 0 0
BITMAP
ENDCHAR
STARTCHAR 00E2
ENCODING 226
SWIDTH 440 0
DWIDTH 11 0
BBX 0 0 0 0
BITMAP
ENDCHAR
STARTCHAR 00E3
ENCODING 227
SWIDTH 440 0
DWIDTH 11 0
BBX 0 0 0 0
BITMAP
ENDCHAR
STARTCHAR 00E4
ENCODING 228
SWIDTH 440 0
DWIDTH 11 0
BBX 0 0 0 0
BITMAP
ENDCHAR
STARTCHAR 00E5
ENCODING 229
SWIDTH 440 0
DWIDTH 11 0
BBX 0 0 0 0
BITMAP
ENDCHAR
STARTCHAR 00E6
ENCODING 230
SWIDTH 720 0
DWIDTH 18 0
BBX 0 0 0 0
BITMAP
ENDCHAR
STARTCHAR 00E7
ENCODING 231
SWIDTH 440 0
DWIDTH 11 0
BBX 0 0 0 0
BITMAP
ENDCHAR
STARTCHAR 00E8
ENCODING 232
SWIDTH 440 0
DWIDTH 11 0
BBX 0 0 0 0
BITMAP
ENDCHAR
STARTCHAR 00E9
ENCODING 233
SWIDTH 440 0
DWIDTH 11 0
BBX 0 0 0 0
BITMAP
ENDCHAR
STARTCHAR 00EA
ENCODING 234
SWIDTH 440 0
DWIDTH 11 0
BBX 0 0 0 0
BITMAP
ENDCHAR
STARTCHAR 00EB
ENCODING 235
SWIDTH 440 0
DWIDTH 11 0
BBX 0 0 0 0
BITMAP
ENDCHAR
STARTCHAR 00EC
ENCODING 236
SWIDTH 240 0
DWIDTH 6 0
BBX 0 0 0 0
BITMAP
ENDCHAR
STARTCHAR 00ED
ENCODING 237
SWIDTH 240 0
DWIDTH 6 0
BBX 0 0 0 0
BITMAP
ENDCHAR
STARTCHAR 00EE
ENCODING 238
SWIDTH 240 0
DWIDTH 6 0
BBX 0 0 0 0
BITMAP
ENDCHAR
STARTCHAR 00EF
ENCODING 239
SWIDTH 240 0
DWIDTH 6 0
BBX 0 0 0 0
BITMAP
ENDCHAR
STARTCHAR 00F0
ENCODING 240
SWIDTH 560 0
DWIDTH 14 0
BBX 0 0 0 0
BITMAP
ENDCHAR
STARTCHAR 00F1
ENCODING 241
SWIDTH 560 0
DWIDTH 14 0
BBX 0 0 0 0
BITMAP
ENDCHAR
STARTCHAR 00F2
ENCODING 242
SWIDTH 480 0
DWIDTH 12 0
BBX 0 0 0 0
BITMAP
ENDCHAR
STARTCHAR 00F3
ENCODING 243
SWIDTH 480 0
DWIDTH 12 0
BBX 0 0 0 0
BITMAP
ENDCHAR
STARTCHAR 00F4
ENCODING 244
SWIDTH 480 0
DWIDTH 12 0
BBX 0 0 0 0
BITMAP
ENDCHAR
STARTCHAR 00F5
ENCODING 245
SWIDTH 480 0
DWIDTH 12 0
BBX 0 0 0 0
BITMAP
ENDCHAR
STARTCHAR 00F6
ENCODING 246
SWIDTH 480 0
DWIDTH 12 0
BBX 0 0 0 0
BITMAP
ENDCHAR
STARTCHAR 00F7
ENCODING 247
SWIDTH 480 0
DWIDTH 12 0
BBX 0 0 0 0
BITMAP
ENDCHAR
STARTCHAR 00F8
ENCODING 248
SWIDTH 480 0
DWIDTH 12 0
BBX 0 0 0 0
BITMAP
ENDCHAR
STARTCHAR 00F9
ENCODING 249
SWIDTH 520 0
DWIDTH 13 0
BBX 0 0 0 0
BITMAP
ENDCHAR
STARTCHAR 00FA
ENCODING 250
SWIDTH 520 0
DWIDTH 13 0
BBX 0 0 0 0
BITMAP
ENDCHAR
STARTCHAR 00FB
ENCODING 251
SWIDTH 520 0
DWIDTH 13 0
BBX 0 0 0 0
BITMAP
ENDCHAR
STARTCHAR 00FC
ENCODING 252
SWIDTH 520 0
DWIDTH 13 0
BBX 0 0 0 0
BITMAP
ENDCHAR
STARTCHAR 00FD
ENCODING 253
SWIDTH 440 0
DWIDTH 11 0
BBX 0 0 0 0
BITMAP
ENDCHAR
STARTCHAR 00FE
ENCODING 254
SWIDTH 480 0
DWIDTH 12 0
BBX 0 0 0 0
BITMAP
ENDCHAR
STARTCHAR 00FF
ENCODING 255
SWIDTH 440 0
DWIDTH 11 0
BBX 0 0 0 0
BITMAP
ENDCHAR
STARTCHAR 0131
ENCODING 305
SWIDTH 240 0
DWIDTH 6 0
BBX 0 0 0 0
BITMAP
ENDCHAR
STARTCHAR 02C6
ENCODING 710
SWIDTH 520 0
DWIDTH 13 0
BBX 0 0 0 0
BITMAP
ENDCHAR
STARTCHAR 02C7
ENCODING 711
SWIDTH 520 0
DWIDTH 13 0
BBX 0 0 0 0
BITMAP
ENDCHAR
STARTCHAR 02C9
ENCODING 713
SWIDTH 520 0
DWIDTH 13 0
BBX 0 0 0 0
BITMAP
ENDCHAR
STARTCHAR 02D8
ENCODING 728
SWIDTH 520 0
DWIDTH 13 0
BBX 0 0 0 0
BITMAP
ENDCHAR
STARTCHAR 02D9
ENCODING 729
SWIDTH 520 0
DWIDTH 13 0
BBX 0 0 0 0
BITMAP
ENDCHAR
STARTCHAR 02DA
ENCODING 730
SWIDTH 520 0
DWIDTH 13 0
BBX 0 0 0 0
BITMAP
ENDCHAR
STARTCHAR 02DB
ENCODING 731
SWIDTH 520 0
DWIDTH 13 0
BBX 0 0 0 0
BITMAP
ENDCHAR
STARTCHAR 02DC
ENCODING 732
SWIDTH 520 0
DWIDTH 13 0
BBX 0 0 0 0
BITMAP
ENDCHAR
STARTCHAR 02DD
ENCODING 733
SWIDTH 520 0
DWIDTH 13 0
BBX 0 0 0 0
BITMAP
ENDCHAR
STARTCHAR 037E
ENCODING 894
SWIDTH 960 0
DWIDTH 24 0
BBX 24 24 0 -4
BITMAP
001800
001800
001800
001800
001800
001800
001800
001800
001800
001800
001800
FFFFFF
FFFFFF
001800
001800
001800
001800
001800
001800
001800
001800
001800
001800
001800
ENDCHAR
STARTCHAR 2013
ENCODING 8211
SWIDTH 560 0
DWIDTH 14 0
BBX 0 0 0 0
BITMAP
ENDCHAR
STARTCHAR 2014
ENCODING 8212
SWIDTH 1000 0
DWIDTH 25 0
BBX 0 0 0 0
BITMAP
ENDCHAR
STARTCHAR 2018
ENCODING 8216
SWIDTH 280 0
DWIDTH 7 0
BBX 0 0 0 0
BITMAP
ENDCHAR
STARTCHAR 2019
ENCODING 8217
SWIDTH 280 0
DWIDTH 7 0
BBX 0 0 0 0
BITMAP
ENDCHAR
STARTCHAR 201A
ENCODING 8218
SWIDTH 280 0
DWIDTH 7 0
BBX 0 0 0 0
BITMAP
ENDCHAR
STARTCHAR 201C
ENCODING 8220
SWIDTH 440 0
DWIDTH 11 0
BBX 0 0 0 0
BITMAP
ENDCHAR
STARTCHAR 201D
ENCODING 8221
SWIDTH 440 0
DWIDTH 11 0
BBX 0 0 0 0
BITMAP
ENDCHAR
STARTCHAR 201E
ENCODING 8222
SWIDTH 440 0
DWIDTH 11 0
BBX 0 0 0 0
BITMAP
ENDCHAR
STARTCHAR 2020
ENCODING 8224
SWIDTH 480 0
DWIDTH 12 0
BBX 0 0 0 0
BITMAP
ENDCHAR
STARTCHAR 2021
ENCODING 8225
SWIDTH 480 0
DWIDTH 12 0
BBX 0 0 0 0
BITMAP
ENDCHAR
STARTCHAR 2022
ENCODING 8226
SWIDTH 520 0
DWIDTH 13 0
BBX 0 0 0 0
BITMAP
ENDCHAR
STARTCHAR 2026
ENCODING 8230
SWIDTH 1000 0
DWIDTH 25 0
BBX 0 0 0 0
BITMAP
ENDCHAR
STARTCHAR 2039
ENCODING 8249
SWIDTH 320 0
DWIDTH 8 0
BBX 0 0 0 0
BITMAP
ENDCHAR
STARTCHAR 203A
ENCODING 8250
SWIDTH 320 0
DWIDTH 8 0
BBX 0 0 0 0
BITMAP
ENDCHAR
STARTCHAR 2044
ENCODING 8260
SWIDTH 160 0
DWIDTH 4 0
BBX 0 0 0 0
BITMAP
ENDCHAR
STARTCHAR 20A3
ENCODING 8355
SWIDTH 480 0
DWIDTH 12 0
BBX 0 0 0 0
BITMAP
ENDCHAR
STARTCHAR 20A4
ENCODING 8356
SWIDTH 480 0
DWIDTH 12 0
BBX 0 0 0 0
BITMAP
ENDCHAR
STARTCHAR 20A7
ENCODING 8359
SWIDTH 1000 0
DWIDTH 25 0
BBX 0 0 0 0
BITMAP
ENDCHAR
STARTCHAR 20AC
ENCODING 8364
SWIDTH 480 0
DWIDTH 12 0
BBX 0 0 0 0
BITMAP
ENDCHAR
STARTCHAR 2116
ENCODING 8470
SWIDTH 1120 0
DWIDTH 28 0
BBX 0 0 0 0
BITMAP
ENDCHAR
STARTCHAR 2122
ENCODING 8482
SWIDTH 720 0
DWIDTH 18 0
BBX 0 0 0 0
BITMAP
ENDCHAR
STARTCHAR 2202
ENCODING 8706
SWIDTH 480 0
DWIDTH 12 0
BBX 0 0 0 0
BITMAP
ENDCHAR
STARTCHAR 2206
ENCODING 8710
SWIDTH 520 0
DWIDTH 13 0
BBX 0 0 0 0
BITMAP
ENDCHAR
STARTCHAR 220F
ENCODING 8719
SWIDTH 760 0
DWIDTH 19 0
BBX 0 0 0 0
BITMAP
ENDCHAR
STARTCHAR 2211
ENCODING 8721
SWIDTH 600 0
DWIDTH 15 0
BBX 0 0 0 0
BITMAP
ENDCHAR
STARTCHAR 2212
ENCODING 8722
SWIDTH 480 0
DWIDTH 12 0
BBX 0 0 0 0
BITMAP
ENDCHAR
STARTCHAR 2215
ENCODING 8725
SWIDTH 160 0
DWIDTH 4 0
BBX 0 0 0 0
BITMAP
ENDCHAR
STARTCHAR 2219
ENCODING 8729
SWIDTH 240 0
DWIDTH 6 0
BBX 0 0 0 0
BITMAP
ENDCHAR
STARTCHAR 221A
ENCODING 8730
SWIDTH 480 0
DWIDTH 12 0
BBX 0 0 0 0
BITMAP
ENDCHAR
STARTCHAR 221E
ENCODING 8734
SWIDTH 480 0
DWIDTH 12 0
BBX 0 0 0 0
BITMAP
ENDCHAR
STARTCHAR 222B
ENCODING 8747
SWIDTH 320 0
DWIDTH 8 0
BBX 0 0 0 0
BITMAP
ENDCHAR
STARTCHAR 2248
ENCODING 8776
SWIDTH 480 0
DWIDTH 12 0
BBX 0 0 0 0
BITMAP
ENDCHAR
STARTCHAR 2264
ENCODING 8804
SWIDTH 480 0
DWIDTH 12 0
BBX 0 0 0 0
BITMAP
ENDCHAR
STARTCHAR 2265
ENCODING 8805
SWIDTH 480 0
DWIDTH 12 0
BBX 0 0 0 0
BITMAP
ENDCHAR
STARTCHAR F001
ENCODING 61441
SWIDTH 520 0
DWIDTH 13 0
BBX 0 0 0 0
BITMAP
ENDCHAR
STARTCHAR F002
ENCODING 61442
SWIDTH 520 0
DWIDTH 13 0
BBX 0 0 0 0
BITMAP
ENDCHAR
STARTCHAR FB01
ENCODING 64257
SWIDTH 520 0
DWIDTH 13 0
BBX 0 0 0 0
BITMAP
ENDCHAR
STARTCHAR FB02
ENCODING 64258
SWIDTH 520 0
DWIDTH 13 0
BBX 0 0 0 0
BITMAP
ENDCHAR
ENDFONT
